<svg width="24" height="24" viewBox="0 0 24 24" fill="none" xmlns="http://www.w3.org/2000/svg">
<path fill-rule="evenodd" clip-rule="evenodd" d="M12 19.5047C16.1448 19.5047 19.5047 16.1447 19.5047 12C19.5047 7.85526 16.1448 4.4953 12 4.4953C7.85532 4.4953 4.49536 7.85526 4.49536 12C4.49536 16.1447 7.85532 19.5047 12 19.5047Z" stroke="#5E6871" stroke-width="1.5"/>
<path fill-rule="evenodd" clip-rule="evenodd" d="M8.71733 14.5015C9.02546 14.5015 9.3164 14.3595 9.50599 14.1166C9.69559 13.8737 9.76271 13.557 9.68794 13.2581L9.18762 11.2568C9.07622 10.8115 8.67608 10.4991 8.21702 10.499H4.64612C4.08352 13.2627 5.11851 16.1084 7.32513 17.865L7.99755 14.5015H8.71733Z" stroke="#5E6871" stroke-width="1.5"/>
<path fill-rule="evenodd" clip-rule="evenodd" d="M17.9938 7.49719H15.2828C14.8238 7.49724 14.4236 7.80966 14.3122 8.255L13.8119 10.2562C13.7371 10.5552 13.8042 10.8719 13.9938 11.1148C14.1834 11.3577 14.4744 11.4997 14.7825 11.4997H15.8358L16.3635 14.6683C16.444 15.1508 16.8616 15.5043 17.3508 15.5042H18.6349C19.9953 12.9381 19.7453 9.8161 17.9938 7.49919V7.49719Z" stroke="#5E6871" stroke-width="1.5"/>
</svg>
