<?xml version="1.0" encoding="iso-8859-1"?>
<!-- Generator: Adobe Illustrator 22.0.1, SVG Export Plug-In . SVG Version: 6.00 Build 0)  -->
<svg version="1.1" id="_x35_0" xmlns="http://www.w3.org/2000/svg" xmlns:xlink="http://www.w3.org/1999/xlink" x="0px" y="0px"
	 viewBox="0 0 512 512" style="enable-background:new 0 0 512 512;" xml:space="preserve">
<g>
	<circle style="fill:#00A585;" cx="256" cy="256" r="256"/>
	<g>
		<g>
			<path style="fill:#EA792E;" d="M166.2,148.008v-36.893c-9.912,0.839-30.217,1.026-39.832,2.202
				c-33.774,3.563-36.902,43.131-34.599,70.01c5.285,45.127,61.236,50.538,97.386,49.167l-0.59-19.02
				c-21.813-1.307-46.828-3.762-63.82-18.365c-9.832-9.188-7.052-23.994-5.73-35.604c0.011-0.044,0.022-0.087,0.034-0.131
				c2.006-7.657,9.206-12.798,17.116-12.499L166.2,148.008z"/>
			<path style="fill:#F39E22;" d="M420.23,183.33c-5.28,45.12-61.24,50.54-97.38,49.16l0.59-19.02c21.81-1.3,46.82-3.76,63.82-18.36
				c9.83-9.19,7.05-23.99,5.73-35.61c-0.02-0.04-0.03-0.08-0.04-0.13c-2-7.65-9.2-12.79-17.11-12.5l-30.04,1.14v-36.89
				c4.06,0.34,9.86,0.57,15.95,0.81c8.8,0.34,18.2,0.69,23.88,1.39c20.08,2.12,29.32,16.96,33.03,34.29
				C421.2,159.44,421.16,172.43,420.23,183.33z"/>
			<path style="fill:#F9C744;" d="M418.66,147.61c-3.13,0.63-6.37,0.96-9.68,0.96c-22.74,0-41.84-15.57-47.23-36.64
				c8.8,0.34,18.2,0.69,23.88,1.39C405.71,115.44,414.95,130.28,418.66,147.61z"/>
			<path style="fill:#F39E22;" d="M93.349,147.61c3.13,0.63,6.37,0.96,9.68,0.96c22.74,0,41.84-15.57,47.23-36.64
				c-8.8,0.34-18.2,0.69-23.88,1.39C106.299,115.44,97.059,130.28,93.349,147.61z"/>
		</g>
		<g>
			<g>
				<path style="fill:#EA792E;" d="M299.9,267.9v21.99c0,9.75-7.9,17.64-17.64,17.64h-52.52c-9.74,0-17.64-7.89-17.64-17.64V267.9
					H299.9z"/>
				<path style="fill:#F39E22;" d="M299.9,267.9v21.99c0,9.75-7.9,17.64-17.64,17.64H256V267.9H299.9z"/>
			</g>
			<g>
				<rect x="233.55" y="307.53" style="fill:#F39E22;" width="44.9" height="49.53"/>
				<rect x="256" y="307.53" style="fill:#F9C744;" width="22.45" height="49.53"/>
			</g>
			<g>
				<g>
					<path style="fill:#18D3AF;" d="M329.97,388.41v56.66H182.03v-56.66c0-17.32,14.04-31.35,31.35-31.35h85.24
						C315.93,357.06,329.97,371.09,329.97,388.41z"/>
					<path style="fill:#5DE8CE;" d="M329.97,388.41v56.66H256v-88.01h42.62C315.93,357.06,329.97,371.09,329.97,388.41z"/>
				</g>
				<g>
					<path style="fill:#F39E22;" d="M340.438,438.443v13.254c0,4.503-3.652,8.155-8.155,8.155H179.717
						c-4.503,0-8.155-3.652-8.155-8.155v-13.254c0-4.503,3.652-8.155,8.155-8.155h152.565
						C336.786,430.287,340.438,433.939,340.438,438.443z"/>
					<path style="fill:#F9C744;" d="M340.438,438.443v13.254c0,4.503-3.652,8.155-8.155,8.155H256v-29.564h76.283
						C336.786,430.287,340.438,433.939,340.438,438.443z"/>
				</g>
				<g>
					<path style="fill:#FFFFFF;" d="M316.247,389.494h-5.779c-2.317,0-4.196,1.878-4.196,4.196v5.779
						c0,2.317,1.878,4.196,4.196,4.196h5.779c2.317,0,4.196-1.878,4.196-4.196v-5.779
						C320.443,391.372,318.564,389.494,316.247,389.494z"/>
					<path style="fill:#CDE6F6;" d="M201.532,389.494h-5.779c-2.317,0-4.196,1.878-4.196,4.196v5.779
						c0,2.317,1.878,4.196,4.196,4.196h5.779c2.317,0,4.196-1.878,4.196-4.196v-5.779
						C205.728,391.372,203.849,389.494,201.532,389.494z"/>
				</g>
				<g>
					<path style="fill:#CDE6F6;" d="M287.008,377.511h-62.016c-4.42,0-8.003,3.583-8.003,8.003v22.13
						c0,4.42,3.583,8.003,8.003,8.003h62.016c4.42,0,8.003-3.583,8.003-8.003v-22.13
						C295.011,381.094,291.428,377.511,287.008,377.511z"/>
					<path style="fill:#FFFFFF;" d="M287.008,415.647H256v-38.137h31.008c4.42,0,8.003,3.583,8.003,8.003v22.13
						C295.011,412.064,291.428,415.647,287.008,415.647z"/>
				</g>
			</g>
		</g>
		<g>
			<g>
				<path style="fill:#F39E22;" d="M345.8,89.17v112.04c0,41.42-33.58,75-75,75h-29.6c-41.42,0-75-33.58-75-75V89.17
					c0-7.97,6.45-14.42,14.41-14.42h150.78C339.35,74.75,345.8,81.2,345.8,89.17z"/>
				<path style="fill:#F9C744;" d="M345.8,89.17V171c0,41.42-33.58,75-75,75h-29.6c-41.42,0-75-33.58-75-75V89.17
					c0-7.97,6.45-14.42,14.41-14.42h150.78C339.35,74.75,345.8,81.2,345.8,89.17z"/>
				<path style="fill:#F9C744;" d="M345.8,89.17v112.04c0,41.42-33.58,75-75,75H256V74.75h75.39
					C339.35,74.75,345.8,81.2,345.8,89.17z"/>
				<path style="fill:#FAD98F;" d="M345.8,89.17V171c0,41.42-33.58,75-75,75H256V74.75h75.39C339.35,74.75,345.8,81.2,345.8,89.17z"
					/>
				<path style="fill:#FAEFDC;" d="M314.933,194.664L314.933,194.664c-8.302,0-15.033-6.73-15.033-15.033v-60.649
					c0-8.302,6.73-15.033,15.033-15.033h0c8.302,0,15.033,6.73,15.033,15.033v60.649
					C329.966,187.934,323.236,194.664,314.933,194.664z"/>
			</g>
			<g>
				<path style="fill:#F39E22;" d="M358.19,66.73v16.04c0,5.45-4.42,9.87-9.87,9.87H163.68c-5.45,0-9.87-4.42-9.87-9.87V66.73
					c0-5.45,4.42-9.87,9.87-9.87h184.64C353.77,56.86,358.19,61.28,358.19,66.73z"/>
				<path style="fill:#F9C744;" d="M358.19,66.73v16.04c0,5.45-4.42,9.87-9.87,9.87H256V56.86h92.32
					C353.77,56.86,358.19,61.28,358.19,66.73z"/>
				<path style="fill:#FAD98F;" d="M335.559,77.343h-61.113c-5.656,0-10.242-4.585-10.242-10.242v0
					c0-5.656,4.585-10.242,10.242-10.242h61.113c5.656,0,10.242,4.585,10.242,10.242v0C345.8,72.758,341.215,77.343,335.559,77.343z
					"/>
			</g>
		</g>
	</g>
	<g>
		<path style="fill:#FFFFFF;" d="M461.43,268.099h-10.57c-7.352,0-13.312-5.96-13.312-13.312v-10.57
			c0-3.193-2.588-5.781-5.781-5.781h0c-3.193,0-5.781,2.588-5.781,5.781v10.57c0,7.352-5.96,13.312-13.312,13.312h-10.57
			c-3.193,0-5.781,2.588-5.781,5.781l0,0c0,3.193,2.588,5.781,5.781,5.781h10.57c7.352,0,13.312,5.96,13.312,13.312v10.57
			c0,3.193,2.588,5.781,5.781,5.781h0c3.193,0,5.781-2.588,5.781-5.781v-10.57c0-7.352,5.96-13.312,13.312-13.312h10.57
			c3.193,0,5.781-2.588,5.781-5.781l0,0C467.211,270.687,464.623,268.099,461.43,268.099z"/>
		<path style="fill:#CDE6F6;" d="M125.851,340.223h-10.57c-7.352,0-13.312-5.96-13.312-13.312v-10.57
			c0-3.193-2.588-5.781-5.781-5.781h0c-3.193,0-5.781,2.588-5.781,5.781v10.57c0,7.352-5.96,13.312-13.312,13.312h-10.57
			c-3.193,0-5.781,2.588-5.781,5.781v0c0,3.193,2.588,5.781,5.781,5.781h10.57c7.352,0,13.312,5.96,13.312,13.312v10.57
			c0,3.193,2.588,5.781,5.781,5.781h0c3.193,0,5.781-2.588,5.781-5.781v-10.57c0-7.352,5.96-13.312,13.312-13.312h10.57
			c3.193,0,5.781-2.588,5.781-5.781v0C131.632,342.811,129.044,340.223,125.851,340.223z"/>
		<path style="fill:#CDE6F6;" d="M400.04,357.804h-8.125c-5.652,0-10.233-4.582-10.233-10.233v-8.125
			c0-2.454-1.99-4.444-4.444-4.444h0c-2.454,0-4.444,1.99-4.444,4.444v8.125c0,5.652-4.582,10.233-10.233,10.233h-8.125
			c-2.454,0-4.444,1.99-4.444,4.444l0,0c0,2.454,1.99,4.444,4.444,4.444h8.125c5.652,0,10.233,4.582,10.233,10.233v8.125
			c0,2.454,1.99,4.444,4.444,4.444h0c2.454,0,4.444-1.99,4.444-4.444v-8.125c0-5.652,4.582-10.233,10.233-10.233h8.125
			c2.454,0,4.444-1.99,4.444-4.444l0,0C404.484,359.793,402.494,357.804,400.04,357.804z"/>
	</g>
	<g>
		<g>
			<g>
				<path style="fill:#F9C744;" d="M243.85,283.003l-27.9-48.325l-44.176,25.505l27.9,48.324c1.549,2.683,5.645,1.654,5.742-1.442
					l0.173-5.505l0.576-18.008c0.207-6.461,7.128-10.457,12.827-7.406l15.883,8.505l4.854,2.603
					C242.461,288.718,245.4,285.686,243.85,283.003z"/>
				<path style="fill:#FFFFFF;" d="M182.27,262.995l21.427,37.113c0.464,0.804,1.153,1.273,1.893,1.452l0.576-18.008
					c0.207-6.461,7.128-10.457,12.827-7.406l15.883,8.505c0.215-0.73,0.153-1.561-0.311-2.365l-21.427-37.113L182.27,262.995z"/>
			</g>
			<g>
				<path style="fill:#F39E22;" d="M115.233,234.878l-27.9,48.325c-1.549,2.683,1.39,5.716,4.12,4.251l4.854-2.603l15.884-8.505
					c5.699-3.052,12.62,0.944,12.827,7.406l0.576,18.008l0.173,5.505c0.097,3.097,4.193,4.125,5.742,1.442l27.9-48.324
					L115.233,234.878z"/>
				<path style="fill:#F4E6F4;" d="M118.045,245.373l-21.427,37.113c-0.464,0.804-0.526,1.635-0.311,2.365l15.883-8.505
					c5.699-3.052,12.62,0.944,12.827,7.406l0.576,18.008c0.74-0.179,1.428-0.648,1.893-1.452l21.427-37.113L118.045,245.373z"/>
			</g>
		</g>
		<g>
			<g>
				<path style="fill:#C0405C;" d="M228.259,234.876c0,5.354-4.114,10.604-10.615,10.418h-0.29c-7.081,0-12.099,7.034-9.7,13.768
					c0.44,1.228,0.637,2.422,0.637,3.569c0,7.95-9.526,13.524-16.641,8.043c-1.901-1.46-4.103-2.144-6.258-2.144
					c-4.346,0-8.541,2.758-9.909,7.405c-1.46,4.925-5.679,7.394-9.897,7.394s-8.437-2.468-9.885-7.394
					c-1.367-4.647-5.563-7.405-9.909-7.405c-2.155,0-4.357,0.684-6.258,2.144c-1.982,1.53-4.149,2.19-6.247,2.19
					c-6.524,0-12.365-6.478-9.758-13.802c0.417-1.159,0.603-2.329,0.603-3.477c0-5.563-4.589-10.453-10.592-10.291h-0.325
					c-10.048,0-14.173-13.049-5.794-18.809c2.99-2.04,4.485-5.273,4.485-8.506c0-3.222-1.495-6.443-4.485-8.495
					c-3.118-2.132-4.497-5.273-4.497-8.379c0-5.354,4.114-10.604,10.616-10.43h0.29c7.081,0,12.099-7.023,9.7-13.756
					c-0.441-1.228-0.637-2.422-0.637-3.581c0-7.95,9.526-13.524,16.642-8.043c1.9,1.46,4.103,2.144,6.258,2.144
					c4.346,0,8.541-2.758,9.909-7.405c1.449-4.925,5.667-7.394,9.885-7.394s8.437,2.468,9.897,7.394
					c2.04,6.953,10.43,9.677,16.166,5.261c1.982-1.53,4.149-2.19,6.246-2.19c6.525,0,12.366,6.478,9.758,13.814
					c-0.417,1.159-0.603,2.329-0.603,3.477c0,5.563,4.589,10.442,10.592,10.279h0.313c10.059,0,14.185,13.061,5.806,18.809
					c-2.99,2.051-4.485,5.273-4.485,8.495c0,3.233,1.495,6.467,4.485,8.506C226.88,228.618,228.259,231.771,228.259,234.876z"/>
				<path style="fill:#E9465E;" d="M228.259,234.876c0,5.354-4.114,10.604-10.615,10.418h-0.29c-7.081,0-12.099,7.034-9.7,13.768
					c0.44,1.228,0.637,2.422,0.637,3.569c0,7.95-9.526,13.524-16.641,8.043c-1.901-1.46-4.103-2.144-6.258-2.144
					c-4.346,0-8.541,2.758-9.909,7.405c-1.46,4.925-5.679,7.394-9.897,7.394V152.642c4.218,0,8.437,2.468,9.897,7.394
					c2.04,6.953,10.43,9.677,16.166,5.261c1.982-1.53,4.149-2.19,6.246-2.19c6.525,0,12.366,6.478,9.758,13.814
					c-0.417,1.159-0.603,2.329-0.603,3.477c0,5.563,4.589,10.442,10.592,10.279h0.313c10.059,0,14.185,13.061,5.806,18.809
					c-2.99,2.051-4.485,5.273-4.485,8.495c0,3.233,1.495,6.467,4.485,8.506C226.88,228.618,228.259,231.771,228.259,234.876z"/>
			</g>
			<g>
				<path style="fill:#F4E6F4;" d="M210.164,217.991c0,24.61-19.956,44.566-44.576,44.566c-24.61,0-44.566-19.956-44.566-44.566
					c0-24.62,19.956-44.576,44.566-44.576C190.208,173.415,210.164,193.371,210.164,217.991z"/>
				<path style="fill:#FFFFFF;" d="M210.164,217.991c0,24.61-19.956,44.566-44.576,44.566v-89.142
					C190.208,173.415,210.164,193.371,210.164,217.991z"/>
			</g>
			<g>
				<path style="fill:#F39E22;" d="M203.575,217.991c0,20.976-17.001,37.977-37.988,37.977c-20.976,0-37.977-17.001-37.977-37.977
					c0-20.988,17.001-37.988,37.977-37.988C186.574,180.003,203.575,197.004,203.575,217.991z"/>
				<path style="fill:#F9C744;" d="M203.575,217.991c0,20.976-17.001,37.977-37.988,37.977v-75.965
					C186.574,180.003,203.575,197.004,203.575,217.991z"/>
			</g>
		</g>
	</g>
</g>
</svg>
