<svg version="1.1" id="Layer_1" xmlns="http://www.w3.org/2000/svg" xmlns:xlink="http://www.w3.org/1999/xlink" x="0px" y="0px"
	 width="100%" viewBox="0 0 464 464" enable-background="new 0 0 464 464" xml:space="preserve">
<path fill="#000000" opacity="1.000000" stroke="none" 
	d="
M44.258869,436.446838 
	C41.042187,428.934265 40.451214,421.295441 39.804817,413.669098 
	C39.734608,412.840729 39.756683,412.003876 39.750835,411.170868 
	C39.384769,359.026337 39.043972,306.881622 38.644470,254.737350 
	C38.473465,232.417206 37.683674,210.089127 38.081829,187.780838 
	C38.485153,165.182816 38.233459,142.505951 41.668579,120.052994 
	C43.505669,108.045197 46.578972,96.338448 55.266552,87.394226 
	C65.823410,76.525513 79.032906,69.866249 94.239983,69.811676 
	C176.882523,69.515129 259.526703,69.658524 342.170319,69.684624 
	C359.080383,69.689964 372.487152,79.950455 376.653778,96.065933 
	C377.779541,100.420059 378.024994,104.933792 378.025116,109.432899 
	C378.028320,216.736298 378.029419,324.039673 378.012024,431.343079 
	C378.009003,449.913055 363.304474,461.127899 345.206818,456.392365 
	C330.798248,452.622162 319.976685,443.203888 309.477692,433.383026 
	C295.458771,420.269501 283.384979,405.338928 270.434723,391.225952 
	C257.083832,376.676270 242.834198,363.192474 224.801178,354.434937 
	C219.248138,351.738129 213.438126,349.794434 207.494568,348.082581 
	C203.534180,346.941895 200.912491,348.000793 198.106949,350.628387 
	C178.531662,368.961823 158.870728,387.203918 139.218597,405.455200 
	C124.815208,418.831879 110.501854,432.308685 95.934074,445.504242 
	C78.269249,461.505157 55.857651,457.609802 44.258869,436.446838 
M86.056122,82.367554 
	C74.250587,87.138405 70.017075,93.893730 70.014977,108.181961 
	C69.999397,214.344681 69.997543,320.507385 70.000053,426.670105 
	C70.000107,428.835022 69.959290,431.015320 70.186928,433.162018 
	C70.973724,440.581482 78.405281,444.031281 84.587097,439.811768 
	C86.500427,438.505768 88.200691,436.866455 89.906693,435.281006 
	C122.985802,404.538452 156.033707,373.762329 189.126434,343.034424 
	C207.453629,326.016907 232.206284,325.880341 250.366470,342.936462 
	C283.770050,374.309265 317.001251,405.865540 350.372375,437.272980 
	C353.479095,440.196899 356.104401,444.939941 361.570038,442.885010 
	C367.421204,440.685181 366.017639,435.296967 366.020081,430.814148 
	C366.071014,337.984222 366.060211,245.154251 366.059021,152.324295 
	C366.058838,136.491669 366.266205,120.655014 365.975891,104.827599 
	C365.712921,90.493385 356.056122,81.320374 341.722443,81.315872 
	C259.225433,81.290001 176.728409,81.299591 94.231400,81.302277 
	C91.737755,81.302361 89.218330,81.137482 86.056122,82.367554 
z"/>
<path fill="#000000" opacity="1.000000" stroke="none" 
	d="
M386.434479,73.023857 
	C380.780884,68.999763 380.798462,64.959015 386.379852,61.780872 
	C400.247314,53.884544 414.198547,46.135105 428.130463,38.352345 
	C431.612274,36.407310 435.306671,35.390587 437.584442,39.733360 
	C439.698486,43.764034 437.587097,46.612759 433.883942,48.653988 
	C420.054474,56.276939 406.263336,63.969391 392.464294,71.647430 
	C390.699554,72.629364 388.937347,73.545326 386.434479,73.023857 
z"/>
<path fill="#000000" opacity="1.000000" stroke="none" 
	d="
M384.778961,15.517618 
	C380.795288,28.945843 377.001495,42.001373 373.097412,55.023853 
	C371.572601,60.110100 368.504700,62.363510 365.026794,60.942661 
	C360.606384,59.136738 360.791687,55.474880 361.899506,51.708214 
	C366.156891,37.232487 370.478394,22.775621 374.735352,8.299782 
	C375.853210,4.498429 377.953857,1.837971 382.227112,2.885990 
	C386.724182,3.988896 386.728882,7.603231 385.962524,11.290261 
	C385.693085,12.586643 385.274933,13.852116 384.778961,15.517618 
z"/>
<path fill="#000000" opacity="1.000000" stroke="none" 
	d="
M420.863220,107.321098 
	C413.982819,105.719894 407.524200,104.140152 401.048798,102.632713 
	C397.184448,101.733124 394.523895,99.779732 395.187408,95.421700 
	C395.738525,91.801704 399.013214,90.371162 403.877106,91.499123 
	C415.213562,94.128098 426.510101,96.931847 437.863678,99.482758 
	C441.919861,100.394104 444.242767,102.445465 443.597931,106.699501 
	C443.048218,110.325981 439.644440,111.739395 434.858856,110.623581 
	C430.325684,109.566612 425.804443,108.458565 420.863220,107.321098 
z"/>
</svg>