<svg version="1.1" id="Layer_1" xmlns="http://www.w3.org/2000/svg" xmlns:xlink="http://www.w3.org/1999/xlink" x="0px" y="0px"
	 width="512" height="512" viewBox="0 0 512 512" enable-background="new 0 0 512 512" xml:space="preserve">
<g transform="translate(128, 128) scale(0.5)">
<path fill="#000000" opacity="1.000000" stroke="none" 
	d="
M186.523407,429.531555 
	C172.810959,442.216339 159.707611,455.071289 145.805008,466.994202 
	C130.536301,480.088684 107.491173,474.873932 98.147476,457.027802 
	C94.244431,449.573151 93.573082,441.467743 92.840797,433.342834 
	C92.766212,432.515228 92.802536,431.677185 92.796288,430.843933 
	C92.413963,379.853333 92.052101,328.862579 91.642502,277.872192 
	C91.449768,253.879181 90.744690,229.881653 91.045074,205.895828 
	C91.326180,183.449600 91.303307,160.925537 94.738274,138.652786 
	C97.242577,122.414650 102.388092,107.216827 117.736725,98.535347 
	C128.432449,92.485634 139.606339,88.361931 152.665756,88.436523 
	C233.494217,88.898193 314.326630,88.655045 395.157715,88.682457 
	C412.076111,88.688194 425.484528,98.953033 429.664398,115.078568 
	C430.793854,119.435944 430.988556,123.960602 430.989075,128.454987 
	C431.001709,235.785294 431.006622,343.115601 430.979156,450.445923 
	C430.974487,468.711212 416.902527,479.644897 399.038849,475.528442 
	C384.052338,472.074982 373.125977,462.235443 362.377533,452.239716 
	C346.116882,437.117859 332.562225,419.451782 317.144623,403.529755 
	C305.372711,391.372711 292.629883,380.470520 277.172119,373.146881 
	C271.740723,370.573547 266.142059,368.565125 260.290588,367.088501 
	C256.603973,366.158203 254.001312,366.919739 251.281845,369.464691 
	C232.668701,386.883667 213.951675,404.191650 195.261612,421.528351 
	C192.451889,424.134644 189.608200,426.704285 186.523407,429.531555 
M419.085846,234.500000 
	C419.069061,198.507874 418.637024,162.509094 419.213409,126.526466 
	C419.494934,108.953903 406.299042,100.024498 392.907715,100.090950 
	C311.593567,100.494530 230.276398,100.288757 148.960236,100.291000 
	C132.077667,100.291466 122.999718,109.261673 122.995941,126.133865 
	C122.972038,233.111160 122.979958,340.088440 122.995575,447.065735 
	C122.995888,449.225250 122.973732,451.431793 123.381660,453.535004 
	C124.410423,458.839050 130.345612,462.042145 135.329529,460.105713 
	C137.869934,459.118683 139.790100,457.220459 141.741745,455.406342 
	C175.178528,424.326172 208.841080,393.483643 241.946152,362.053986 
	C259.222137,345.652344 286.605957,345.590149 303.718689,362.111359 
	C330.446991,387.915924 357.654480,413.224304 384.673615,438.727386 
	C392.305634,445.931152 399.948029,453.125122 407.677734,460.223297 
	C409.522736,461.917542 411.685852,463.232330 414.477020,462.022614 
	C417.397644,460.756744 418.897705,458.611572 418.968597,455.451050 
	C419.013428,453.452576 419.061859,451.453552 419.062195,449.454773 
	C419.073792,378.136505 419.079895,306.818268 419.085846,234.500000 
z"/>
<path fill="#000000" opacity="1.000000" stroke="none" 
	d="
M435.268951,86.903717 
	C435.380615,83.493896 437.310913,81.841263 439.764496,80.476585 
	C453.563080,72.801773 467.319824,65.051552 481.130157,57.398029 
	C485.463806,54.996365 488.995667,55.588757 490.718567,58.737278 
	C492.456329,61.912937 491.070465,65.252579 486.806763,67.635086 
	C473.024658,75.336395 459.243927,83.041710 445.386505,90.605995 
	C439.917328,93.591431 437.719452,92.722130 435.268951,86.903717 
z"/>
<path fill="#000000" opacity="1.000000" stroke="none" 
	d="
M417.397156,62.540009 
	C420.916565,50.676685 424.308075,39.196579 427.684937,27.712160 
	C428.826721,23.829098 430.778168,20.632160 435.415802,22.006151 
	C440.108856,23.396544 439.838867,27.273649 438.738861,31.049829 
	C434.553497,45.417755 430.316040,59.770557 426.074158,74.121941 
	C424.949371,77.927414 423.149963,81.084167 418.384583,80.007645 
	C414.774445,79.192101 413.549011,75.936874 414.848602,71.048027 
	C415.574310,68.318123 416.453461,65.629013 417.397156,62.540009 
z"/>
<path fill="#000000" opacity="1.000000" stroke="none" 
	d="
M466.199036,112.622681 
	C474.826935,114.657181 483.028625,116.691994 491.265533,118.572708 
	C495.100525,119.448357 497.426270,121.583359 496.539917,125.537956 
	C495.602264,129.721603 492.450806,130.755417 488.432861,129.774979 
	C477.008667,126.987328 465.580322,124.214745 454.128815,121.542526 
	C450.221405,120.630722 447.410278,118.640442 448.420807,114.408287 
	C449.488983,109.934563 452.954315,109.263763 457.082062,110.503754 
	C459.932465,111.360023 462.881989,111.886208 466.199036,112.622681 
z"/>
</g>
</svg>